<?xml version="1.0" standalone="no"?>
<!DOCTYPE svg PUBLIC "-//W3C//DTD SVG 20010904//EN"
 "http://www.w3.org/TR/2001/REC-SVG-20010904/DTD/svg10.dtd">
<svg version="1.0" xmlns="http://www.w3.org/2000/svg"
 width="260.000000pt" height="260.000000pt" viewBox="0 0 260.000000 260.000000"
 preserveAspectRatio="xMidYMid meet">
<metadata>
Created by potrace 1.11, written by Peter Selinger 2001-2013
</metadata>
<g transform="translate(0.000000,260.000000) scale(0.100000,-0.100000)"
fill="#000000" stroke="none">
<path d="M0 1300 l0 -1300 1300 0 1300 0 0 1300 0 1300 -1300 0 -1300 0 0
-1300z m1549 1090 c385 -93 687 -434 782 -883 31 -144 31 -370 0 -514 -95
-452 -395 -788 -787 -885 -124 -30 -304 -30 -428 0 -392 97 -692 433 -787 885
-31 144 -31 370 0 514 104 490 438 833 879 903 82 13 243 3 341 -20z"/>
<path d="M1149 2330 c-154 -32 -319 -124 -441 -244 -355 -349 -441 -929 -206
-1388 334 -654 1124 -738 1555 -165 268 355 308 865 101 1269 -207 406 -604
614 -1009 528z m414 -787 c-2 -631 -5 -706 -32 -819 -52 -214 -156 -344 -275
-344 -80 0 -143 46 -209 152 -33 52 -68 179 -77 278 l-10 101 75 150 c41 82
76 149 78 149 1 0 1 -76 0 -170 -1 -93 1 -170 5 -170 4 0 71 128 150 285 l142
285 0 185 0 185 72 145 c40 80 75 145 78 145 3 0 4 -251 3 -557z"/>
<path d="M1278 1043 c-71 -139 -128 -261 -128 -272 0 -26 51 -78 85 -87 69
-17 142 71 165 197 6 31 9 137 8 235 l-3 179 -127 -252z"/>
</g>
</svg>
