<?xml version="1.0" standalone="no"?>
<!DOCTYPE svg PUBLIC "-//W3C//DTD SVG 20010904//EN"
 "http://www.w3.org/TR/2001/REC-SVG-20010904/DTD/svg10.dtd">
<svg version="1.0" xmlns="http://www.w3.org/2000/svg"
 width="2048.000000pt" height="2048.000000pt" viewBox="0 0 2048.000000 2048.000000"
 preserveAspectRatio="xMidYMid meet">
<metadata>
Created by potrace 1.11, written by Peter Selinger 2001-2013
</metadata>
<g transform="translate(0.000000,2048.000000) scale(0.100000,-0.100000)"
fill="#000000" stroke="none">
<path d="M2578 15334 c37 -22 48 -24 68 -15 13 6 24 15 24 21 0 6 4 9 9 5 5
-3 12 -1 16 5 4 6 -23 10 -77 10 l-83 0 43 -26z"/>
<path d="M3424 15351 c3 -4 19 -14 36 -21 16 -7 30 -16 30 -21 0 -5 5 -9 11
-9 5 0 7 5 4 10 -5 9 0 11 25 13 3 0 13 8 23 18 16 18 15 19 -59 19 -41 0 -73
-4 -70 -9z"/>
<path d="M4291 15357 c2 -2 20 -13 39 -24 l36 -20 34 24 34 23 -73 0 c-41 0
-72 -1 -70 -3z"/>
<path d="M12275 13417 c-22 -23 -55 -54 -73 -69 -19 -16 -31 -28 -27 -28 3 0
-5 -11 -17 -24 -13 -13 -26 -21 -30 -19 -5 2 -8 0 -8 -6 0 -11 -128 -140 -133
-134 -2 1 -10 -8 -17 -22 -7 -13 -21 -27 -31 -30 -10 -4 -18 -10 -16 -15 2 -9
-53 -60 -66 -60 -5 0 -6 -4 -3 -8 3 -5 -6 -15 -19 -22 -14 -7 -27 -21 -30 -31
-3 -10 -15 -21 -25 -24 -11 -3 -19 -10 -17 -15 2 -9 -54 -60 -67 -60 -5 0 -7
-2 -4 -5 7 -7 -95 -113 -104 -108 -5 2 -8 0 -8 -5 0 -12 -143 -157 -152 -154
-5 1 -8 -2 -8 -6 0 -13 -68 -81 -74 -74 -3 3 -6 1 -6 -5 0 -14 -147 -162 -154
-155 -3 3 -6 0 -6 -6 0 -6 -11 -23 -25 -38 -14 -15 -25 -23 -25 -19 0 4 -9 -4
-20 -18 -21 -26 -21 -38 -23 -747 -1 -396 1 -720 5 -720 6 0 44 38 88 90 12
14 18 19 14 11 -5 -9 -3 -12 4 -7 7 4 12 12 12 17 0 12 49 59 62 59 5 0 7 4 4
8 -6 9 29 42 44 42 6 0 10 4 10 9 0 12 73 86 83 83 4 -1 7 4 7 12 0 8 5 18 12
22 7 5 8 3 3 -6 -5 -9 -4 -11 3 -6 7 4 12 11 12 16 0 13 49 60 62 60 6 0 9 2
6 5 -7 7 58 75 72 75 5 0 9 4 8 8 -4 10 130 142 143 142 5 0 9 7 9 16 0 9 9
18 20 21 11 3 20 9 20 14 0 15 33 48 42 43 5 -3 7 0 6 8 -2 7 3 12 10 10 6 -1
12 2 12 7 0 12 98 110 104 103 4 -3 6 -1 6 5 0 14 168 183 182 183 6 0 9 3 6
6 -6 6 31 47 47 52 6 2 16 14 23 28 7 13 17 22 22 19 6 -4 10 -2 10 4 0 6 11
21 25 35 l24 24 3 726 c2 399 3 726 3 726 0 0 -18 -19 -40 -43z"/>
<path d="M14629 13304 c17 -35 24 -41 48 -39 15 1 35 -2 43 -8 8 -5 2 2 -13
17 -15 14 -35 26 -43 26 -8 0 -14 5 -14 12 0 6 -3 8 -7 5 -3 -4 -12 1 -20 11
-8 9 -5 -1 6 -24z"/>
<path d="M5474 11983 c8 -8 44 -11 55 -4 6 4 -4 8 -24 8 -19 0 -33 -2 -31 -4z"/>
<path d="M34 11681 c3 -5 -1 -12 -10 -15 -8 -3 -13 -10 -10 -15 4 -5 1 -12 -4
-14 -7 -4 -6 -5 0 -3 7 1 11 5 10 10 -1 5 5 13 14 18 18 10 21 28 5 28 -5 0
-8 -4 -5 -9z"/>
<path d="M12292 11444 c-7 -7 -12 -16 -12 -19 0 -3 -2 -5 -5 -5 -10 0 -42 -35
-38 -42 2 -4 -6 -9 -17 -13 -11 -3 -20 -13 -20 -21 0 -8 -7 -14 -15 -14 -8 0
-15 -4 -15 -8 0 -13 -36 -53 -42 -47 -2 3 -11 -6 -18 -20 -7 -14 -17 -25 -22
-25 -11 0 -48 -38 -48 -50 0 -5 -4 -10 -9 -10 -9 0 -68 -54 -73 -68 -2 -4 -6
-6 -10 -4 -5 1 -8 -3 -8 -8 0 -6 -12 -22 -27 -35 -22 -18 -31 -21 -43 -12 -12
9 -13 9 -2 -3 16 -18 15 -30 -1 -30 -8 0 -20 -11 -27 -25 -7 -13 -17 -22 -22
-19 -4 3 -8 -2 -8 -10 0 -9 -7 -16 -15 -16 -8 0 -14 -3 -13 -7 2 -5 -1 -10 -7
-13 -13 -7 -86 -83 -104 -109 -8 -11 -18 -18 -21 -16 -4 2 -13 -7 -20 -20 -7
-14 -17 -25 -21 -25 -10 0 -99 -92 -99 -103 0 -4 -4 -5 -10 -2 -5 3 -10 -1
-10 -9 0 -9 -7 -16 -15 -16 -8 0 -14 -3 -12 -7 1 -5 0 -8 -3 -9 -7 -1 -93 -89
-109 -113 -8 -11 -18 -18 -23 -15 -4 3 -8 2 -8 -3 0 -4 -11 -21 -25 -37 -14
-16 -25 -25 -25 -20 0 5 -9 -4 -20 -21 -11 -16 -20 -26 -20 -21 0 13 -34 -25
-43 -47 -4 -10 -11 -15 -17 -12 -5 3 -10 1 -10 -5 0 -14 -51 -59 -67 -60 -10
0 -12 57 -12 243 1 305 2 281 -15 265 -8 -7 -13 -15 -11 -18 2 -3 -3 -11 -11
-18 -8 -7 -14 -11 -14 -8 0 2 -38 -35 -85 -82 -47 -47 -85 -89 -85 -93 0 -5
-4 -9 -10 -9 -12 0 -150 -139 -150 -152 0 -5 -3 -8 -7 -5 -10 4 -132 -121
-125 -128 3 -3 1 -5 -5 -5 -14 0 -783 -769 -783 -783 0 -5 -2 -8 -5 -5 -6 6
-195 -181 -195 -193 0 -5 -5 -9 -10 -9 -13 0 -150 -139 -150 -152 0 -5 -3 -8
-7 -5 -10 4 -132 -121 -125 -128 3 -3 1 -5 -5 -5 -13 0 -441 -428 -435 -435 3
-3 -2 -5 -10 -5 -12 0 -14 -7 -8 -37 4 -21 13 -51 20 -68 7 -16 13 -33 12 -37
-1 -5 3 -8 9 -8 5 0 7 -4 4 -10 -3 -5 -2 -10 2 -10 5 0 16 -13 26 -29 15 -26
31 -45 97 -117 11 -12 20 -27 20 -33 0 -15 -107 -120 -114 -113 -4 3 -6 1 -6
-5 0 -13 -67 -82 -73 -76 -3 2 -12 -9 -22 -24 -23 -35 -51 -63 -58 -57 -3 3
-8 -3 -11 -13 -4 -10 -24 -31 -46 -48 -22 -16 -42 -38 -45 -47 -4 -10 -13 -18
-21 -18 -8 0 -14 -6 -14 -13 0 -8 -11 -20 -25 -27 -13 -7 -22 -17 -19 -22 3
-4 -2 -11 -11 -15 -17 -6 -65 -50 -65 -59 0 -9 -49 -54 -60 -54 -5 0 -9 -3 -7
-7 1 -5 0 -8 -3 -8 -11 0 -66 -60 -63 -67 2 -5 -2 -8 -10 -8 -7 0 -20 -11 -27
-25 -7 -13 -17 -22 -22 -19 -4 3 -8 -2 -8 -10 0 -9 -7 -16 -16 -16 -8 0 -12
-4 -9 -10 3 -5 2 -10 -3 -10 -5 0 -30 -21 -55 -47 -43 -44 -45 -47 -30 -70 8
-12 19 -20 24 -17 5 3 9 1 9 -5 0 -12 14 -26 70 -72 23 -18 58 -49 78 -66 19
-18 39 -33 44 -33 5 0 19 -11 31 -24 12 -13 37 -31 55 -40 17 -9 32 -21 32
-26 0 -6 5 -10 11 -10 6 0 30 -13 53 -30 24 -16 49 -30 56 -32 7 -2 21 -10 30
-19 21 -19 185 -100 277 -135 84 -32 107 -41 136 -54 12 -6 35 -12 50 -14 15
-1 30 -6 34 -9 3 -4 15 -7 25 -7 10 0 26 -4 36 -9 19 -10 133 -36 145 -33 4 1
16 -2 25 -7 9 -5 45 -11 80 -14 34 -4 66 -8 70 -11 10 -6 216 -20 302 -20 85
-1 342 14 352 20 4 3 35 7 69 10 34 2 67 8 73 11 6 4 25 8 43 9 17 1 40 7 52
13 12 7 21 10 21 7 0 -3 15 0 33 5 17 6 43 12 57 15 14 3 52 14 85 26 58 20
75 25 85 26 3 1 31 12 63 26 32 15 64 26 72 26 8 0 15 5 15 10 0 6 5 10 12 10
16 0 159 69 180 87 9 8 22 12 29 7 7 -4 10 -3 6 3 -4 6 10 19 31 29 20 10 39
22 42 25 3 3 16 12 29 19 13 6 42 26 65 44 23 17 55 40 70 51 47 33 90 68 113
92 12 13 25 23 29 22 10 -2 154 140 154 152 0 6 3 8 8 6 4 -2 15 4 25 15 9 10
15 18 13 18 -5 0 45 59 97 113 20 22 37 43 37 47 0 12 37 50 44 45 3 -3 4 -2
1 1 -2 4 14 31 35 62 22 30 40 60 40 66 0 6 9 17 20 24 12 7 18 16 15 21 -2 5
2 14 10 21 8 7 12 16 9 21 -3 5 -1 9 4 9 5 0 17 18 27 40 10 22 22 40 27 40 4
0 8 4 8 10 0 5 15 40 32 77 18 38 33 70 34 73 0 3 6 18 12 33 7 16 12 33 12
38 0 6 4 8 9 5 4 -3 8 5 7 17 -1 12 2 25 7 28 5 3 9 12 10 20 2 8 5 19 9 24 5
9 39 122 38 127 0 2 6 26 14 53 8 28 17 67 20 89 4 21 8 42 11 46 3 4 7 25 10
46 3 22 8 50 10 64 2 14 6 57 10 95 4 39 9 73 11 76 4 8 6 2640 2 2644 -2 2
-9 -3 -16 -11z m-1208 -1901 c-1 -368 -4 -679 -7 -693 -3 -14 -8 -41 -11 -60
-12 -67 -29 -135 -42 -166 -7 -17 -10 -34 -7 -38 4 -3 1 -6 -5 -6 -7 0 -12 -4
-12 -10 0 -18 -61 -143 -91 -186 -16 -23 -29 -47 -29 -53 0 -6 -4 -11 -8 -11
-4 0 -24 -21 -45 -47 -49 -64 -133 -153 -144 -153 -4 0 -14 -9 -21 -20 -7 -11
-19 -20 -28 -20 -8 0 -12 -4 -9 -10 3 -5 2 -10 -3 -10 -4 0 -17 -8 -28 -18
-25 -23 -121 -82 -134 -82 -6 0 -10 -4 -10 -8 0 -9 -70 -37 -82 -34 -5 1 -8
-2 -8 -8 0 -5 -11 -10 -24 -10 -13 0 -26 -4 -28 -8 -3 -8 -94 -37 -145 -48
-108 -21 -146 -25 -256 -28 -195 -4 -373 32 -520 105 -22 10 -45 19 -53 19 -8
0 -14 5 -14 10 0 6 -7 10 -15 10 -8 0 -15 5 -15 10 0 6 -9 10 -19 10 -11 0
-21 4 -23 8 -1 4 -25 23 -53 42 -67 47 -165 132 -165 143 0 10 425 432 433
429 4 -1 7 2 7 8 0 13 143 155 153 152 4 -1 7 2 7 7 0 12 463 476 473 473 4
-1 7 2 7 8 0 13 143 155 153 152 4 -1 7 2 7 7 0 14 97 111 111 111 7 0 10 3 7
6 -7 7 184 200 195 196 4 -1 7 2 7 7 0 14 470 481 484 481 9 0 11 -151 10
-667z"/>
<path d="M8499 11069 c-8 -5 -2 -7 19 -7 18 1 34 4 36 7 6 9 -40 10 -55 0z"/>
<path d="M20460 10705 c0 -8 -7 -15 -15 -15 -17 0 -19 -18 -6 -52 5 -13 10
-27 11 -33 1 -5 6 -15 12 -22 5 -7 7 -17 3 -23 -3 -5 -1 -10 4 -10 7 0 11 32
11 85 0 50 -4 85 -10 85 -5 0 -10 -7 -10 -15z"/>
<path d="M19106 10048 c-23 -32 -21 -53 2 -30 10 10 19 26 19 35 0 22 -3 21
-21 -5z"/>
<path d="M8531 9677 c-133 -133 -246 -249 -251 -257 -6 -8 -10 -12 -10 -8 0 4
-33 -27 -72 -69 -40 -42 -83 -86 -96 -97 -13 -11 -132 -130 -265 -264 -133
-135 -250 -251 -259 -260 -9 -9 -15 -18 -13 -21 2 -3 6 -47 10 -96 3 -50 8
-103 10 -120 3 -16 7 -50 9 -75 3 -25 6 -45 6 -45 1 0 3 -14 5 -31 10 -92 77
-323 124 -426 11 -26 21 -51 21 -56 0 -4 9 -18 20 -30 11 -12 21 -24 21 -27 3
-24 13 -45 21 -45 5 0 7 -4 4 -8 -3 -5 8 -24 23 -43 16 -19 28 -36 27 -39 0
-3 8 -18 20 -32 23 -30 23 -30 81 33 12 13 28 29 35 35 7 6 37 37 67 68 29 31
57 56 63 56 5 0 6 5 3 10 -3 6 2 10 11 10 10 0 15 2 12 5 -7 7 84 100 95 97 4
-1 7 2 7 8 0 14 37 50 52 50 6 0 9 3 6 6 -7 7 44 60 55 56 4 -1 7 2 7 6 0 5
23 33 52 63 28 30 48 47 44 39 -4 -8 -1 -7 6 3 25 36 117 127 128 127 6 0 8 5
5 10 -3 6 1 10 9 10 9 0 15 4 13 8 -2 10 63 72 76 72 4 0 6 3 4 8 -2 4 11 22
29 40 19 18 34 29 34 25 0 -4 7 6 16 22 12 24 14 44 8 95 -12 102 -12 92 -13
728 -1 334 -5 602 -10 602 -4 0 -117 -109 -250 -243z"/>
<path d="M3944 9442 c-5 -4 -9 -14 -9 -22 0 -8 -4 -18 -10 -22 -5 -4 0 -6 13
-5 12 0 22 4 22 8 0 4 12 12 28 17 23 9 15 15 -14 11 -4 0 -10 4 -13 10 -4 5
-11 7 -17 3z"/>
<path d="M13864 9249 c-4 -7 -3 -9 4 -5 5 3 13 0 15 -6 4 -9 6 -10 6 -1 1 17
-16 25 -25 12z"/>
<path d="M13860 9220 c0 -6 7 -10 15 -10 8 0 15 2 15 4 0 2 -7 6 -15 10 -8 3
-15 1 -15 -4z"/>
<path d="M13423 7963 c-23 -9 -14 -22 27 -43 30 -15 40 -17 40 -7 0 11 -45 59
-53 56 -1 0 -8 -3 -14 -6z"/>
<path d="M11859 6478 c-22 -23 -36 -47 -36 -63 0 -14 1 -25 3 -25 5 0 41 30
78 65 17 16 32 28 34 27 9 -8 20 1 16 13 -4 8 -10 12 -15 9 -5 -3 -9 -1 -9 5
0 20 -36 5 -71 -31z"/>
<path d="M17919 6173 c-1 -7 -2 -17 -3 -22 0 -5 -4 -13 -8 -17 -13 -12 -9 -24
6 -18 19 7 25 25 15 49 -4 11 -8 14 -10 8z"/>
<path d="M3015 5849 c-4 -6 -5 -12 -2 -15 2 -3 7 2 10 11 7 17 1 20 -8 4z"/>
<path d="M2945 5800 c-3 -6 1 -7 9 -4 18 7 21 14 7 14 -6 0 -13 -4 -16 -10z"/>
<path d="M16189 5742 c-19 -73 -19 -80 -5 -85 7 -3 13 0 14 6 0 7 3 22 6 35 3
12 8 31 10 42 3 11 7 24 10 29 3 5 0 11 -8 14 -10 4 -18 -8 -27 -41z"/>
<path d="M1786 5135 c-18 -14 -15 -15 35 -14 30 1 46 3 37 6 -10 2 -18 9 -18
14 0 14 -33 10 -54 -6z"/>
<path d="M10325 5130 c-3 -5 1 -10 10 -10 9 0 13 5 10 10 -3 6 -8 10 -10 10
-2 0 -7 -4 -10 -10z"/>
</g>
</svg>
